<svg width="39" height="39" viewBox="0 0 39 39" fill="none" xmlns="http://www.w3.org/2000/svg">
<path d="M35.752 19.9007L24.0703 14.0598L24.0703 7.3125C24.0703 6.10038 23.5888 4.9379 22.7317 4.0808C21.8746 3.2237 20.7121 2.74219 19.5 2.74219C18.2879 2.74219 17.1254 3.2237 16.2683 4.0808C15.4112 4.9379 14.9297 6.10038 14.9297 7.3125L14.9297 14.0598L3.24797 19.9007C3.09596 19.9766 2.96812 20.0933 2.87878 20.2378C2.78944 20.3823 2.74214 20.5489 2.74219 20.7188L2.74219 25.5938C2.74225 25.729 2.77233 25.8625 2.83024 25.9848C2.88816 26.107 2.97247 26.2148 3.07711 26.3005C3.18174 26.3862 3.30409 26.4476 3.43532 26.4803C3.56656 26.513 3.70341 26.5161 3.83602 26.4895L14.9297 24.2714V27.6519L12.7603 29.8228C12.5888 29.9941 12.4924 30.2264 12.4922 30.4688V35.3438C12.4922 35.4931 12.5288 35.6403 12.5989 35.7722C12.6689 35.9042 12.7702 36.017 12.8939 36.1007C13.0176 36.1844 13.16 36.2366 13.3086 36.2525C13.4571 36.2685 13.6073 36.2478 13.746 36.1923L19.5 33.8904L25.254 36.1923C25.3927 36.2478 25.5429 36.2685 25.6914 36.2525C25.84 36.2366 25.9823 36.1844 26.1061 36.1007C26.2298 36.017 26.3311 35.9042 26.4011 35.7722C26.4712 35.6403 26.5078 35.4931 26.5078 35.3437V30.4687C26.5076 30.2264 26.4112 29.9941 26.2397 29.8228L24.0703 27.6519V24.2714L35.164 26.4895C35.2966 26.5161 35.4334 26.513 35.5647 26.4803C35.6959 26.4476 35.8183 26.3862 35.9229 26.3005C36.0275 26.2148 36.1118 26.107 36.1698 25.9848C36.2277 25.8625 36.2577 25.729 36.2578 25.5937L36.2578 20.7187C36.2579 20.5489 36.2106 20.3823 36.1212 20.2378C36.0319 20.0933 35.904 19.9766 35.752 19.9007ZM34.4297 24.4786L23.336 22.2605C23.2034 22.2339 23.0666 22.237 22.9353 22.2697C22.8041 22.3024 22.6817 22.3638 22.5771 22.4495C22.4725 22.5352 22.3882 22.643 22.3302 22.7652C22.2723 22.8875 22.2423 23.021 22.2422 23.1562V28.0312C22.2424 28.2736 22.3388 28.5059 22.5103 28.6772L24.6797 30.8481V33.994L19.8397 32.0577C19.6217 31.9704 19.3783 31.9704 19.1603 32.0577L14.3203 33.994V30.8481L16.4897 28.6772C16.6612 28.5059 16.7576 28.2736 16.7578 28.0312V23.1562C16.7577 23.021 16.7277 22.8875 16.6698 22.7652C16.6118 22.643 16.5275 22.5352 16.4229 22.4495C16.3183 22.3638 16.1959 22.3024 16.0647 22.2697C15.9334 22.237 15.7966 22.2339 15.664 22.2605L4.57031 24.4786L4.57031 21.2794L16.252 15.4385C16.4033 15.363 16.5307 15.2469 16.62 15.1033C16.7093 14.9597 16.757 14.7941 16.7578 14.625V7.3125C16.7578 6.58523 17.0467 5.88774 17.561 5.37348C18.0752 4.85922 18.7727 4.57031 19.5 4.57031C20.2273 4.57031 20.9248 4.85922 21.439 5.37348C21.9533 5.88774 22.2422 6.58523 22.2422 7.3125L22.2422 14.625C22.2421 14.7949 22.2894 14.9614 22.3788 15.1059C22.4681 15.2505 22.596 15.3672 22.748 15.4431L34.4297 21.2839V24.4786Z" fill="black"/>
</svg>
