<svg width="39" height="39" viewBox="0 0 39 39" fill="none" xmlns="http://www.w3.org/2000/svg">
<path d="M30.1641 13.4062V29.2499C30.1641 29.4923 30.0678 29.7248 29.8964 29.8962C29.7249 30.0677 29.4925 30.164 29.25 30.164H13.4063C13.1639 30.164 12.9314 30.0677 12.7599 29.8962C12.5885 29.7248 12.4922 29.4923 12.4922 29.2499C12.4922 29.0075 12.5885 28.775 12.7599 28.6036C12.9314 28.4321 13.1639 28.3358 13.4063 28.3358H27.0441L9.10409 10.3958C8.94263 10.2226 8.85473 9.99339 8.85891 9.75658C8.86309 9.51978 8.95902 9.29384 9.12649 9.12637C9.29396 8.95889 9.5199 8.86296 9.7567 8.85878C9.99351 8.85461 10.2227 8.94251 10.396 9.10397L28.336 27.044V13.4062C28.336 13.1637 28.4323 12.9312 28.6037 12.7598C28.7751 12.5884 29.0076 12.4921 29.25 12.4921C29.4925 12.4921 29.7249 12.5884 29.8964 12.7598C30.0678 12.9312 30.1641 13.1637 30.1641 13.4062Z" fill="black"/>
</svg>
