<svg width="36" height="36" viewBox="0 0 36 36" fill="none" xmlns="http://www.w3.org/2000/svg">
<path d="M27.8442 12.3749V27C27.8442 27.2237 27.7553 27.4383 27.5971 27.5966C27.4388 27.7548 27.2242 27.8437 27.0004 27.8437H12.3754C12.1517 27.8437 11.9371 27.7548 11.7788 27.5966C11.6206 27.4383 11.5317 27.2237 11.5317 27C11.5317 26.7762 11.6206 26.5616 11.7788 26.4033C11.9371 26.2451 12.1517 26.1562 12.3754 26.1562H24.9642L8.40419 9.5962C8.25515 9.43625 8.17401 9.2247 8.17787 9.00611C8.18172 8.78752 8.27027 8.57896 8.42486 8.42437C8.57945 8.26979 8.78801 8.18123 9.0066 8.17738C9.22519 8.17352 9.43674 8.25466 9.59669 8.4037L26.1567 24.9637V12.3749C26.1567 12.1512 26.2456 11.9366 26.4038 11.7783C26.562 11.6201 26.7767 11.5312 27.0004 11.5312C27.2242 11.5312 27.4388 11.6201 27.5971 11.7783C27.7553 11.9366 27.8442 12.1512 27.8442 12.3749Z" fill="black"/>
</svg>
