<svg width="39" height="39" viewBox="0 0 39 39" fill="none" xmlns="http://www.w3.org/2000/svg">
<path d="M36.5625 17.3672H32.0668L25.3789 10.6793C25.1812 10.4808 24.9461 10.3235 24.6873 10.2163C24.4284 10.1091 24.1509 10.0542 23.8707 10.0547H6.74578C6.39469 10.0546 6.049 10.1412 5.73939 10.3067C5.42978 10.4723 5.16584 10.7117 4.97098 11.0038L0.457034 17.7739C0.357295 17.9243 0.304288 18.1008 0.30469 18.2813V25.5938C0.30469 26.1594 0.529396 26.7019 0.929376 27.1019C1.32936 27.5019 1.87185 27.7266 2.4375 27.7266H5.2711C5.48089 28.7597 6.0414 29.6886 6.85767 30.3558C7.67394 31.0229 8.69576 31.3874 9.75 31.3874C10.8042 31.3874 11.8261 31.0229 12.6423 30.3558C13.4586 29.6886 14.0191 28.7597 14.2289 27.7266H24.7711C24.9809 28.7597 25.5414 29.6886 26.3577 30.3558C27.1739 31.0229 28.1958 31.3874 29.25 31.3874C30.3042 31.3874 31.3261 31.0229 32.1423 30.3558C32.9586 29.6886 33.5191 28.7597 33.7289 27.7266H36.5625C37.1282 27.7266 37.6706 27.5019 38.0706 27.1019C38.4706 26.7019 38.6953 26.1594 38.6953 25.5938V19.5C38.6953 18.9343 38.4706 18.3919 38.0706 17.9919C37.6706 17.5919 37.1282 17.3672 36.5625 17.3672ZM6.49289 12.0184C6.52067 11.9768 6.55827 11.9426 6.60238 11.919C6.64648 11.8953 6.69574 11.8829 6.74578 11.8828H23.8707C23.9514 11.8832 24.0287 11.9155 24.0856 11.9727L29.4816 17.3672H2.92653L6.49289 12.0184ZM9.75 29.5547C9.20765 29.5547 8.67747 29.3939 8.22652 29.0925C7.77557 28.7912 7.4241 28.363 7.21655 27.8619C7.009 27.3608 6.9547 26.8095 7.0605 26.2775C7.16631 25.7456 7.42748 25.257 7.81098 24.8735C8.19449 24.49 8.6831 24.2288 9.21503 24.123C9.74696 24.0172 10.2983 24.0715 10.7994 24.2791C11.3005 24.4866 11.7287 24.8381 12.03 25.289C12.3314 25.74 12.4922 26.2701 12.4922 26.8125C12.4922 27.5398 12.2033 28.2373 11.689 28.7515C11.1748 29.2658 10.4773 29.5547 9.75 29.5547ZM29.25 29.5547C28.7076 29.5547 28.1775 29.3939 27.7265 29.0925C27.2756 28.7912 26.9241 28.363 26.7166 27.8619C26.509 27.3608 26.4547 26.8095 26.5605 26.2775C26.6663 25.7456 26.9275 25.257 27.311 24.8735C27.6945 24.49 28.1831 24.2288 28.715 24.123C29.247 24.0172 29.7983 24.0715 30.2994 24.2791C30.8005 24.4866 31.2287 24.8381 31.53 25.289C31.8314 25.74 31.9922 26.2701 31.9922 26.8125C31.9922 27.5398 31.7033 28.2373 31.189 28.7515C30.6748 29.2658 29.9773 29.5547 29.25 29.5547ZM36.8672 25.5938C36.8672 25.6746 36.8351 25.7521 36.778 25.8092C36.7208 25.8663 36.6433 25.8984 36.5625 25.8984H33.7289C33.5191 24.8653 32.9586 23.9364 32.1423 23.2693C31.3261 22.6021 30.3042 22.2376 29.25 22.2376C28.1958 22.2376 27.1739 22.6021 26.3577 23.2693C25.5414 23.9364 24.9809 24.8653 24.7711 25.8984H14.2289C14.0191 24.8653 13.4586 23.9364 12.6423 23.2693C11.8261 22.6021 10.8042 22.2376 9.75 22.2376C8.69576 22.2376 7.67394 22.6021 6.85767 23.2693C6.0414 23.9364 5.48089 24.8653 5.2711 25.8984H2.4375C2.35669 25.8984 2.2792 25.8663 2.22206 25.8092C2.16492 25.7521 2.13281 25.6746 2.13281 25.5938V19.1953H36.5625C36.6433 19.1953 36.7208 19.2274 36.778 19.2846C36.8351 19.3417 36.8672 19.4192 36.8672 19.5V25.5938Z" fill="black"/>
</svg>
