<svg width="58" height="58" viewBox="0 0 58 58" fill="none" xmlns="http://www.w3.org/2000/svg">
<path d="M39.0231 22.6019C39.2777 22.8568 39.4207 23.2023 39.4207 23.5625C39.4207 23.9227 39.2777 24.2682 39.0231 24.5231L26.3356 37.2106C26.0808 37.4652 25.7352 37.6082 25.375 37.6082C25.0148 37.6082 24.6693 37.4652 24.4144 37.2106L18.9769 31.7731C18.7368 31.5154 18.606 31.1746 18.6123 30.8224C18.6185 30.4703 18.7611 30.1342 19.0102 29.8852C19.2593 29.6361 19.5953 29.4935 19.9474 29.4872C20.2996 29.481 20.6404 29.6118 20.8981 29.8519L25.375 34.3265L37.1019 22.6019C37.3568 22.3473 37.7023 22.2043 38.0625 22.2043C38.4227 22.2043 38.7683 22.3473 39.0231 22.6019ZM52.1094 29C52.1094 33.5706 50.754 38.0386 48.2148 41.8389C45.6755 45.6392 42.0663 48.6012 37.8436 50.3503C33.6209 52.0994 28.9744 52.557 24.4916 51.6653C20.0088 50.7737 15.8911 48.5727 12.6592 45.3408C9.42731 42.1089 7.22636 37.9912 6.33468 33.5084C5.443 29.0256 5.90064 24.3791 7.64973 20.1564C9.39883 15.9337 12.3608 12.3245 16.1611 9.78526C19.9614 7.24597 24.4294 5.89063 29 5.89062C35.1268 5.89782 41.0006 8.33486 45.3329 12.6672C49.6651 16.9994 52.1022 22.8732 52.1094 29ZM49.3906 29C49.3906 24.9671 48.1947 21.0248 45.9542 17.6716C43.7136 14.3184 40.5291 11.7048 36.8032 10.1615C33.0773 8.6182 28.9774 8.2144 25.022 9.00117C21.0666 9.78795 17.4333 11.73 14.5817 14.5817C11.73 17.4333 9.78796 21.0666 9.00119 25.022C8.21441 28.9774 8.61821 33.0773 10.1615 36.8032C11.7048 40.5291 14.3184 43.7136 17.6716 45.9542C21.0248 48.1947 24.9671 49.3906 29 49.3906C34.4061 49.3846 39.5891 47.2344 43.4117 43.4117C47.2344 39.589 49.3846 34.4061 49.3906 29Z" fill="white"/>
</svg>
