<svg width="39" height="39" viewBox="0 0 39 39" fill="none" xmlns="http://www.w3.org/2000/svg">
<path d="M26.2839 7.47399C24.4192 5.31735 22.3196 3.37563 20.0241 1.68493C19.8704 1.57743 19.6875 1.51978 19.5 1.51978C19.3125 1.51978 19.1296 1.57743 18.9759 1.68493C16.6804 3.37563 14.5808 5.31735 12.7161 7.47399C8.58305 12.2271 6.39844 17.2286 6.39844 21.9375C6.39844 25.4123 7.77878 28.7447 10.2358 31.2017C12.6928 33.6587 16.0252 35.0391 19.5 35.0391C22.9748 35.0391 26.3072 33.6587 28.7642 31.2017C31.2212 28.7447 32.6016 25.4123 32.6016 21.9375C32.6016 17.2286 30.417 12.2271 26.2839 7.47399ZM28.7747 28.3359H10.2253C9.57796 27.4012 9.07565 26.374 8.73539 25.2891H30.2646C29.9244 26.374 29.422 27.4012 28.7747 28.3359ZM8.33168 23.4609C8.26271 22.956 8.22759 22.4471 8.22656 21.9375C8.22734 21.4285 8.25582 20.92 8.31188 20.4141H30.6881C30.7442 20.92 30.7727 21.4285 30.7734 21.9375C30.7724 22.4471 30.7373 22.956 30.6683 23.4609H8.33168ZM19.5 3.57856C21.5003 5.12028 28.6147 11.0525 30.3758 18.5859H8.62418C10.3853 11.0525 17.4997 5.12028 19.5 3.57856ZM11.8036 30.1641H27.1903C25.1059 32.1195 22.355 33.2079 19.497 33.2079C16.6389 33.2079 13.888 32.1195 11.8036 30.1641Z" fill="black"/>
</svg>
