<svg width="39" height="39" viewBox="0 0 39 39" fill="none" xmlns="http://www.w3.org/2000/svg">
<path d="M37.7812 31.9922H36.2578V19.5C36.2578 18.9343 36.0331 18.3919 35.6331 17.9919C35.2331 17.5919 34.6907 17.3672 34.125 17.3672H25.2891V7.3125C25.2891 6.74684 25.0644 6.20435 24.6644 5.80437C24.2644 5.40439 23.7219 5.17969 23.1562 5.17969H8.53125C7.96559 5.17969 7.4231 5.40439 7.02312 5.80437C6.62314 6.20435 6.39844 6.74684 6.39844 7.3125V31.9922H4.875C4.63258 31.9922 4.40008 32.0885 4.22866 32.2599C4.05724 32.4313 3.96094 32.6638 3.96094 32.9062C3.96094 33.1487 4.05724 33.3812 4.22866 33.5526C4.40008 33.724 4.63258 33.8203 4.875 33.8203H37.7812C38.0237 33.8203 38.2562 33.724 38.4276 33.5526C38.599 33.3812 38.6953 33.1487 38.6953 32.9062C38.6953 32.6638 38.599 32.4313 38.4276 32.2599C38.2562 32.0885 38.0237 31.9922 37.7812 31.9922ZM34.125 19.1953C34.2058 19.1953 34.2833 19.2274 34.3404 19.2846C34.3976 19.3417 34.4297 19.4192 34.4297 19.5V31.9922H25.2891V19.1953H34.125ZM8.22656 7.3125C8.22656 7.23169 8.25866 7.15419 8.3158 7.09705C8.37294 7.03991 8.45044 7.00781 8.53125 7.00781H23.1562C23.2371 7.00781 23.3146 7.03991 23.3717 7.09705C23.4288 7.15419 23.4609 7.23169 23.4609 7.3125V31.9922H20.4141V24.375C20.4141 24.1326 20.3178 23.9001 20.1463 23.7287C19.9749 23.5572 19.7424 23.4609 19.5 23.4609H12.1875C11.9451 23.4609 11.7126 23.5572 11.5412 23.7287C11.3697 23.9001 11.2734 24.1326 11.2734 24.375V31.9922H8.22656V7.3125ZM18.5859 31.9922H13.1016V25.2891H18.5859V31.9922ZM11.2734 14.625C11.2734 14.3826 11.3697 14.1501 11.5412 13.9787C11.7126 13.8072 11.9451 13.7109 12.1875 13.7109H14.9297V10.9688C14.9297 10.7263 15.026 10.4938 15.1974 10.3224C15.3688 10.151 15.6013 10.0547 15.8438 10.0547C16.0862 10.0547 16.3187 10.151 16.4901 10.3224C16.6615 10.4938 16.7578 10.7263 16.7578 10.9688V13.7109H19.5C19.7424 13.7109 19.9749 13.8072 20.1463 13.9787C20.3178 14.1501 20.4141 14.3826 20.4141 14.625C20.4141 14.8674 20.3178 15.0999 20.1463 15.2713C19.9749 15.4428 19.7424 15.5391 19.5 15.5391H16.7578V18.2812C16.7578 18.5237 16.6615 18.7562 16.4901 18.9276C16.3187 19.099 16.0862 19.1953 15.8438 19.1953C15.6013 19.1953 15.3688 19.099 15.1974 18.9276C15.026 18.7562 14.9297 18.5237 14.9297 18.2812V15.5391H12.1875C11.9451 15.5391 11.7126 15.4428 11.5412 15.2713C11.3697 15.0999 11.2734 14.8674 11.2734 14.625Z" fill="black"/>
</svg>
