<svg width="50" height="50" viewBox="0 0 50 50" fill="none" xmlns="http://www.w3.org/2000/svg">
<circle cx="25" cy="25" r="25" transform="rotate(-180 25 25)" fill="#E9E9ED"/>
<path d="M14.2929 25.3029C13.9024 25.6934 13.9024 26.3266 14.2929 26.7171L20.6569 33.0811C21.0474 33.4716 21.6805 33.4716 22.0711 33.0811C22.4616 32.6906 22.4616 32.0574 22.0711 31.6669L16.4142 26.01L22.0711 20.3532C22.4616 19.9626 22.4616 19.3295 22.0711 18.9389C21.6805 18.5484 21.0474 18.5484 20.6569 18.9389L14.2929 25.3029ZM35 26.01L35 25.01L15 25.01L15 26.01L15 27.01L35 27.01L35 26.01Z" fill="black"/>
</svg>
