<svg width="39" height="39" viewBox="0 0 39 39" fill="none" xmlns="http://www.w3.org/2000/svg">
<path d="M31.5352 6.39844H7.46484C6.85878 6.39844 6.27754 6.63919 5.84899 7.06774C5.42044 7.49629 5.17969 8.07753 5.17969 8.68359V16.1804C5.17981 16.619 5.30613 17.0483 5.54358 17.417C5.78103 17.7857 6.11957 18.0784 6.51879 18.2599L16.6344 22.8516C15.1705 23.5075 13.976 24.6458 13.2503 26.0764C12.5246 27.507 12.3117 29.1432 12.6471 30.7119C12.9825 32.2805 13.8459 33.6867 15.0931 34.6954C16.3403 35.7042 17.8959 36.2545 19.5 36.2545C21.1041 36.2545 22.6597 35.7042 23.9069 34.6954C25.1541 33.6867 26.0175 32.2805 26.3529 30.7119C26.6883 29.1432 26.4754 27.507 25.7497 26.0764C25.024 24.6458 23.8295 23.5075 22.3656 22.8516L32.4812 18.2538C32.8795 18.0727 33.2174 17.781 33.4548 17.4135C33.6922 17.0459 33.819 16.618 33.8203 16.1804V8.68359C33.8203 8.07753 33.5796 7.49629 33.151 7.06774C32.7225 6.63919 32.1412 6.39844 31.5352 6.39844ZM24.6797 8.22656V19.8047L19.5 22.1584L14.3203 19.8047V8.22656H24.6797ZM7.00781 16.1804V8.68359C7.00781 8.56238 7.05596 8.44613 7.14167 8.36042C7.22738 8.27471 7.34363 8.22656 7.46484 8.22656H12.4922V18.9668L7.27594 16.5963C7.19604 16.5601 7.12826 16.5016 7.08072 16.4278C7.03317 16.3541 7.00786 16.2682 7.00781 16.1804ZM24.6797 29.25C24.6797 30.2744 24.3759 31.2759 23.8068 32.1277C23.2376 32.9795 22.4286 33.6434 21.4822 34.0354C20.5357 34.4274 19.4943 34.53 18.4895 34.3302C17.4847 34.1303 16.5618 33.637 15.8374 32.9126C15.113 32.1882 14.6197 31.2653 14.4198 30.2605C14.22 29.2557 14.3226 28.2143 14.7146 27.2678C15.1066 26.3214 15.7705 25.5124 16.6223 24.9432C17.4741 24.3741 18.4756 24.0703 19.5 24.0703C20.8737 24.0703 22.1912 24.616 23.1626 25.5874C24.134 26.5588 24.6797 27.8763 24.6797 29.25ZM31.9922 16.1804C31.9921 16.2682 31.9668 16.3541 31.9193 16.4278C31.8717 16.5016 31.804 16.5601 31.7241 16.5963L26.5078 18.9668V8.22656H31.5352C31.6564 8.22656 31.7726 8.27471 31.8583 8.36042C31.944 8.44613 31.9922 8.56238 31.9922 8.68359V16.1804Z" fill="black"/>
</svg>
