<svg width="39" height="39" viewBox="0 0 39 39" fill="none" xmlns="http://www.w3.org/2000/svg">
<path d="M5.17967 15.8438C5.17967 15.6013 5.27598 15.3688 5.4474 15.1974C5.61882 15.026 5.85131 14.9297 6.09374 14.9297H8.53124C8.77366 14.9297 9.00616 15.026 9.17758 15.1974C9.349 15.3688 9.4453 15.6013 9.4453 15.8438C9.4453 16.0862 9.349 16.3187 9.17758 16.4901C9.00616 16.6615 8.77366 16.7578 8.53124 16.7578H6.09374C5.85131 16.7578 5.61882 16.6615 5.4474 16.4901C5.27598 16.3187 5.17967 16.0862 5.17967 15.8438ZM11.0967 8.73387C11.1813 8.81993 11.2821 8.88839 11.3932 8.93531C11.5044 8.98223 11.6237 9.00667 11.7444 9.00724C11.8651 9.0078 11.9846 8.98446 12.0962 8.93858C12.2078 8.8927 12.3092 8.82517 12.3946 8.7399C12.48 8.65463 12.5476 8.5533 12.5936 8.44176C12.6397 8.33022 12.6631 8.21067 12.6627 8.09001C12.6623 7.96935 12.638 7.84997 12.5912 7.73874C12.5444 7.62752 12.4761 7.52667 12.3901 7.44199L10.664 5.71746C10.4898 5.56293 10.263 5.48077 10.0302 5.48776C9.79739 5.49475 9.57601 5.59036 9.41131 5.75507C9.2466 5.91978 9.15098 6.14115 9.14399 6.37398C9.13701 6.60681 9.21917 6.83352 9.3737 7.00781L11.0967 8.73387ZM19.5 5.78906C19.7424 5.78906 19.9749 5.69276 20.1463 5.52134C20.3177 5.34992 20.414 5.11742 20.414 4.875V2.4375C20.414 2.19508 20.3177 1.96258 20.1463 1.79116C19.9749 1.61974 19.7424 1.52344 19.5 1.52344C19.2576 1.52344 19.0251 1.61974 18.8536 1.79116C18.6822 1.96258 18.5859 2.19508 18.5859 2.4375V4.875C18.5859 5.11742 18.6822 5.34992 18.8536 5.52134C19.0251 5.69276 19.2576 5.78906 19.5 5.78906ZM27.2558 9.00199C27.3761 9.00209 27.4951 8.97845 27.6063 8.93244C27.7174 8.88643 27.8183 8.81895 27.9033 8.73387L29.6263 7.00781C29.7808 6.83352 29.863 6.60681 29.856 6.37398C29.849 6.14115 29.7534 5.91978 29.5887 5.75507C29.424 5.59036 29.2026 5.49475 28.9698 5.48776C28.7369 5.48077 28.5102 5.56293 28.3359 5.71746L26.6099 7.44199C26.4822 7.56982 26.3953 7.73262 26.3601 7.90983C26.3249 8.08703 26.343 8.27069 26.4121 8.43762C26.4812 8.60454 26.5982 8.74724 26.7484 8.84769C26.8986 8.94814 27.0751 9.00183 27.2558 9.00199ZM29.5547 15.8438C29.5547 16.0862 29.651 16.3187 29.8224 16.4901C29.9938 16.6615 30.2263 16.7578 30.4687 16.7578H32.9062C33.1487 16.7578 33.3812 16.6615 33.5526 16.4901C33.724 16.3187 33.8203 16.0862 33.8203 15.8438C33.8203 15.6013 33.724 15.3688 33.5526 15.1974C33.3812 15.026 33.1487 14.9297 32.9062 14.9297H30.4687C30.2263 14.9297 29.9938 15.026 29.8224 15.1974C29.651 15.3688 29.5547 15.6013 29.5547 15.8438ZM13.4062 16.7578C13.6487 16.7578 13.8812 16.6615 14.0526 16.4901C14.224 16.3187 14.3203 16.0862 14.3203 15.8438C14.3203 14.47 14.866 13.1525 15.8374 12.1812C16.8088 11.2098 18.1262 10.6641 19.5 10.6641C20.8737 10.6641 22.1912 11.2098 23.1626 12.1812C24.134 13.1525 24.6797 14.47 24.6797 15.8438C24.6797 16.0862 24.776 16.3187 24.9474 16.4901C25.1188 16.6615 25.3513 16.7578 25.5937 16.7578C25.8362 16.7578 26.0687 16.6615 26.2401 16.4901C26.4115 16.3187 26.5078 16.0862 26.5078 15.8438C26.5078 13.9852 25.7695 12.2027 24.4553 10.8885C23.141 9.57426 21.3586 8.83594 19.5 8.83594C17.6414 8.83594 15.8589 9.57426 14.5447 10.8885C13.2305 12.2027 12.4922 13.9852 12.4922 15.8438C12.4922 16.0862 12.5885 16.3187 12.7599 16.4901C12.9313 16.6615 13.1638 16.7578 13.4062 16.7578ZM36.1329 33.3633C36.0529 33.5019 35.9379 33.617 35.7994 33.6972C35.6609 33.7774 35.5038 33.8199 35.3437 33.8203H3.65624C3.49659 33.8202 3.33976 33.7783 3.20136 33.6987C3.06295 33.6191 2.9478 33.5047 2.86737 33.3668C2.78694 33.2289 2.74403 33.0723 2.74291 32.9126C2.74179 32.753 2.78251 32.5959 2.861 32.4568L9.05987 21.4881C9.13956 21.347 9.25534 21.2295 9.39534 21.1479C9.53535 21.0662 9.69455 21.0233 9.85663 21.0234H29.1433C29.3054 21.0233 29.4646 21.0662 29.6046 21.1479C29.7446 21.2295 29.8604 21.347 29.9401 21.4881L36.139 32.4568C36.2169 32.5954 36.2573 32.7519 36.2562 32.9109C36.2551 33.0698 36.2126 33.2258 36.1329 33.3633ZM28.6101 22.8516H24.3445L25.0072 25.8984H30.3392L28.6101 22.8516ZM23.1349 25.8984L22.4722 22.8516H16.5308L15.8681 25.8984H23.1349ZM15.4674 27.7266L14.5397 31.9922H24.4603L23.5325 27.7266H15.4674ZM8.66682 25.8984H13.9989L14.6615 22.8516H10.3959L8.66682 25.8984ZM5.22233 31.9922H12.6689L13.5967 27.7266H7.63393L5.22233 31.9922ZM33.7776 31.9922L31.366 27.7266H25.4033L26.3311 31.9922H33.7776Z" fill="black"/>
</svg>
